<?xml version="1.0" encoding="utf-8" standalone="no"?>
<!DOCTYPE svg PUBLIC "-//W3C//DTD SVG 1.1//EN"
  "http://www.w3.org/Graphics/SVG/1.1/DTD/svg11.dtd">
<svg xmlns:xlink="http://www.w3.org/1999/xlink" width="460.8pt" height="345.6pt" viewBox="0 0 460.8 345.6" xmlns="http://www.w3.org/2000/svg" version="1.1">
 <metadata>
  <rdf:RDF xmlns:dc="http://purl.org/dc/elements/1.1/" xmlns:cc="http://creativecommons.org/ns#" xmlns:rdf="http://www.w3.org/1999/02/22-rdf-syntax-ns#">
   <cc:Work>
    <dc:type rdf:resource="http://purl.org/dc/dcmitype/StillImage"/>
    <dc:date>2021-12-10T01:59:30.469551</dc:date>
    <dc:format>image/svg+xml</dc:format>
    <dc:creator>
     <cc:Agent>
      <dc:title>Matplotlib v3.5.0, https://matplotlib.org/</dc:title>
     </cc:Agent>
    </dc:creator>
   </cc:Work>
  </rdf:RDF>
 </metadata>
 <defs>
  <style type="text/css">*{stroke-linejoin: round; stroke-linecap: butt}</style>
 </defs>
 <g id="figure_1">
  <g id="patch_1">
   <path d="M 0 345.6 
L 460.8 345.6 
L 460.8 0 
L 0 0 
z
" style="fill: #ffffff"/>
  </g>
  <g id="axes_1">
   <g id="patch_2">
    <path d="M 47.72 303.64 
L 450 303.64 
L 450 42.648 
L 47.72 42.648 
z
" style="fill: #ffffff"/>
   </g>
   <g id="PathCollection_1">
    <defs>
     <path id="m60de76b28b" d="M 0 3 
C 0.795609 3 1.55874 2.683901 2.12132 2.12132 
C 2.683901 1.55874 3 0.795609 3 0 
C 3 -0.795609 2.683901 -1.55874 2.12132 -2.12132 
C 1.55874 -2.683901 0.795609 -3 0 -3 
C -0.795609 -3 -1.55874 -2.683901 -2.12132 -2.12132 
C -2.683901 -1.55874 -3 -0.795609 -3 0 
C -3 0.795609 -2.683901 1.55874 -2.12132 2.12132 
C -1.55874 2.683901 -0.795609 3 0 3 
z
" style="stroke: #1f77b4"/>
    </defs>
    <g clip-path="url(#p06e27a2a04)">
     <use xlink:href="#m60de76b28b" x="66.005455" y="291.776727" style="fill: #1f77b4; stroke: #1f77b4"/>
     <use xlink:href="#m60de76b28b" x="85.252916" y="291.115014" style="fill: #1f77b4; stroke: #1f77b4"/>
     <use xlink:href="#m60de76b28b" x="104.500378" y="289.139362" style="fill: #1f77b4; stroke: #1f77b4"/>
     <use xlink:href="#m60de76b28b" x="123.74784" y="285.849773" style="fill: #1f77b4; stroke: #1f77b4"/>
     <use xlink:href="#m60de76b28b" x="142.995302" y="281.246245" style="fill: #1f77b4; stroke: #1f77b4"/>
     <use xlink:href="#m60de76b28b" x="162.242764" y="275.32878" style="fill: #1f77b4; stroke: #1f77b4"/>
     <use xlink:href="#m60de76b28b" x="181.490226" y="268.097376" style="fill: #1f77b4; stroke: #1f77b4"/>
     <use xlink:href="#m60de76b28b" x="200.737688" y="259.552034" style="fill: #1f77b4; stroke: #1f77b4"/>
     <use xlink:href="#m60de76b28b" x="219.985149" y="249.692754" style="fill: #1f77b4; stroke: #1f77b4"/>
     <use xlink:href="#m60de76b28b" x="239.232611" y="238.519536" style="fill: #1f77b4; stroke: #1f77b4"/>
     <use xlink:href="#m60de76b28b" x="258.480073" y="226.03238" style="fill: #1f77b4; stroke: #1f77b4"/>
     <use xlink:href="#m60de76b28b" x="277.727535" y="212.231286" style="fill: #1f77b4; stroke: #1f77b4"/>
     <use xlink:href="#m60de76b28b" x="296.974997" y="197.116254" style="fill: #1f77b4; stroke: #1f77b4"/>
     <use xlink:href="#m60de76b28b" x="316.222459" y="180.687284" style="fill: #1f77b4; stroke: #1f77b4"/>
     <use xlink:href="#m60de76b28b" x="335.469921" y="162.944376" style="fill: #1f77b4; stroke: #1f77b4"/>
     <use xlink:href="#m60de76b28b" x="354.717382" y="143.887529" style="fill: #1f77b4; stroke: #1f77b4"/>
     <use xlink:href="#m60de76b28b" x="373.964844" y="123.516745" style="fill: #1f77b4; stroke: #1f77b4"/>
     <use xlink:href="#m60de76b28b" x="393.212306" y="101.832022" style="fill: #1f77b4; stroke: #1f77b4"/>
     <use xlink:href="#m60de76b28b" x="412.459768" y="78.833362" style="fill: #1f77b4; stroke: #1f77b4"/>
     <use xlink:href="#m60de76b28b" x="431.714545" y="54.511273" style="fill: #1f77b4; stroke: #1f77b4"/>
    </g>
   </g>
   <g id="matplotlib.axis_1">
    <g id="xtick_1">
     <g id="line2d_1">
      <path d="M 65.932298 303.64 
L 65.932298 42.648 
" clip-path="url(#p06e27a2a04)" style="fill: none; stroke: #b0b0b0; stroke-width: 0.8; stroke-linecap: square"/>
     </g>
     <g id="line2d_2">
      <defs>
       <path id="macc3420e14" d="M 0 0 
L 0 3.5 
" style="stroke: #000000; stroke-width: 0.8"/>
      </defs>
      <g>
       <use xlink:href="#macc3420e14" x="65.932298" y="303.64" style="stroke: #000000; stroke-width: 0.8"/>
      </g>
     </g>
     <g id="text_1">
      <!-- 0 -->
      <g transform="translate(62.751048 318.238437)scale(0.1 -0.1)">
       <defs>
        <path id="DejaVuSans-30" d="M 2034 4250 
Q 1547 4250 1301 3770 
Q 1056 3291 1056 2328 
Q 1056 1369 1301 889 
Q 1547 409 2034 409 
Q 2525 409 2770 889 
Q 3016 1369 3016 2328 
Q 3016 3291 2770 3770 
Q 2525 4250 2034 4250 
z
M 2034 4750 
Q 2819 4750 3233 4129 
Q 3647 3509 3647 2328 
Q 3647 1150 3233 529 
Q 2819 -91 2034 -91 
Q 1250 -91 836 529 
Q 422 1150 422 2328 
Q 422 3509 836 4129 
Q 1250 4750 2034 4750 
z
" transform="scale(0.015625)"/>
       </defs>
       <use xlink:href="#DejaVuSans-30"/>
      </g>
     </g>
    </g>
    <g id="xtick_2">
     <g id="line2d_3">
      <path d="M 139.088748 303.64 
L 139.088748 42.648 
" clip-path="url(#p06e27a2a04)" style="fill: none; stroke: #b0b0b0; stroke-width: 0.8; stroke-linecap: square"/>
     </g>
     <g id="line2d_4">
      <g>
       <use xlink:href="#macc3420e14" x="139.088748" y="303.64" style="stroke: #000000; stroke-width: 0.8"/>
      </g>
     </g>
     <g id="text_2">
      <!-- 10000 -->
      <g transform="translate(123.182498 318.238437)scale(0.1 -0.1)">
       <defs>
        <path id="DejaVuSans-31" d="M 794 531 
L 1825 531 
L 1825 4091 
L 703 3866 
L 703 4441 
L 1819 4666 
L 2450 4666 
L 2450 531 
L 3481 531 
L 3481 0 
L 794 0 
L 794 531 
z
" transform="scale(0.015625)"/>
       </defs>
       <use xlink:href="#DejaVuSans-31"/>
       <use xlink:href="#DejaVuSans-30" x="63.623047"/>
       <use xlink:href="#DejaVuSans-30" x="127.246094"/>
       <use xlink:href="#DejaVuSans-30" x="190.869141"/>
       <use xlink:href="#DejaVuSans-30" x="254.492188"/>
      </g>
     </g>
    </g>
    <g id="xtick_3">
     <g id="line2d_5">
      <path d="M 212.245197 303.64 
L 212.245197 42.648 
" clip-path="url(#p06e27a2a04)" style="fill: none; stroke: #b0b0b0; stroke-width: 0.8; stroke-linecap: square"/>
     </g>
     <g id="line2d_6">
      <g>
       <use xlink:href="#macc3420e14" x="212.245197" y="303.64" style="stroke: #000000; stroke-width: 0.8"/>
      </g>
     </g>
     <g id="text_3">
      <!-- 20000 -->
      <g transform="translate(196.338947 318.238437)scale(0.1 -0.1)">
       <defs>
        <path id="DejaVuSans-32" d="M 1228 531 
L 3431 531 
L 3431 0 
L 469 0 
L 469 531 
Q 828 903 1448 1529 
Q 2069 2156 2228 2338 
Q 2531 2678 2651 2914 
Q 2772 3150 2772 3378 
Q 2772 3750 2511 3984 
Q 2250 4219 1831 4219 
Q 1534 4219 1204 4116 
Q 875 4013 500 3803 
L 500 4441 
Q 881 4594 1212 4672 
Q 1544 4750 1819 4750 
Q 2544 4750 2975 4387 
Q 3406 4025 3406 3419 
Q 3406 3131 3298 2873 
Q 3191 2616 2906 2266 
Q 2828 2175 2409 1742 
Q 1991 1309 1228 531 
z
" transform="scale(0.015625)"/>
       </defs>
       <use xlink:href="#DejaVuSans-32"/>
       <use xlink:href="#DejaVuSans-30" x="63.623047"/>
       <use xlink:href="#DejaVuSans-30" x="127.246094"/>
       <use xlink:href="#DejaVuSans-30" x="190.869141"/>
       <use xlink:href="#DejaVuSans-30" x="254.492188"/>
      </g>
     </g>
    </g>
    <g id="xtick_4">
     <g id="line2d_7">
      <path d="M 285.401647 303.64 
L 285.401647 42.648 
" clip-path="url(#p06e27a2a04)" style="fill: none; stroke: #b0b0b0; stroke-width: 0.8; stroke-linecap: square"/>
     </g>
     <g id="line2d_8">
      <g>
       <use xlink:href="#macc3420e14" x="285.401647" y="303.64" style="stroke: #000000; stroke-width: 0.8"/>
      </g>
     </g>
     <g id="text_4">
      <!-- 30000 -->
      <g transform="translate(269.495397 318.238437)scale(0.1 -0.1)">
       <defs>
        <path id="DejaVuSans-33" d="M 2597 2516 
Q 3050 2419 3304 2112 
Q 3559 1806 3559 1356 
Q 3559 666 3084 287 
Q 2609 -91 1734 -91 
Q 1441 -91 1130 -33 
Q 819 25 488 141 
L 488 750 
Q 750 597 1062 519 
Q 1375 441 1716 441 
Q 2309 441 2620 675 
Q 2931 909 2931 1356 
Q 2931 1769 2642 2001 
Q 2353 2234 1838 2234 
L 1294 2234 
L 1294 2753 
L 1863 2753 
Q 2328 2753 2575 2939 
Q 2822 3125 2822 3475 
Q 2822 3834 2567 4026 
Q 2313 4219 1838 4219 
Q 1578 4219 1281 4162 
Q 984 4106 628 3988 
L 628 4550 
Q 988 4650 1302 4700 
Q 1616 4750 1894 4750 
Q 2613 4750 3031 4423 
Q 3450 4097 3450 3541 
Q 3450 3153 3228 2886 
Q 3006 2619 2597 2516 
z
" transform="scale(0.015625)"/>
       </defs>
       <use xlink:href="#DejaVuSans-33"/>
       <use xlink:href="#DejaVuSans-30" x="63.623047"/>
       <use xlink:href="#DejaVuSans-30" x="127.246094"/>
       <use xlink:href="#DejaVuSans-30" x="190.869141"/>
       <use xlink:href="#DejaVuSans-30" x="254.492188"/>
      </g>
     </g>
    </g>
    <g id="xtick_5">
     <g id="line2d_9">
      <path d="M 358.558096 303.64 
L 358.558096 42.648 
" clip-path="url(#p06e27a2a04)" style="fill: none; stroke: #b0b0b0; stroke-width: 0.8; stroke-linecap: square"/>
     </g>
     <g id="line2d_10">
      <g>
       <use xlink:href="#macc3420e14" x="358.558096" y="303.64" style="stroke: #000000; stroke-width: 0.8"/>
      </g>
     </g>
     <g id="text_5">
      <!-- 40000 -->
      <g transform="translate(342.651846 318.238437)scale(0.1 -0.1)">
       <defs>
        <path id="DejaVuSans-34" d="M 2419 4116 
L 825 1625 
L 2419 1625 
L 2419 4116 
z
M 2253 4666 
L 3047 4666 
L 3047 1625 
L 3713 1625 
L 3713 1100 
L 3047 1100 
L 3047 0 
L 2419 0 
L 2419 1100 
L 313 1100 
L 313 1709 
L 2253 4666 
z
" transform="scale(0.015625)"/>
       </defs>
       <use xlink:href="#DejaVuSans-34"/>
       <use xlink:href="#DejaVuSans-30" x="63.623047"/>
       <use xlink:href="#DejaVuSans-30" x="127.246094"/>
       <use xlink:href="#DejaVuSans-30" x="190.869141"/>
       <use xlink:href="#DejaVuSans-30" x="254.492188"/>
      </g>
     </g>
    </g>
    <g id="xtick_6">
     <g id="line2d_11">
      <path d="M 431.714545 303.64 
L 431.714545 42.648 
" clip-path="url(#p06e27a2a04)" style="fill: none; stroke: #b0b0b0; stroke-width: 0.8; stroke-linecap: square"/>
     </g>
     <g id="line2d_12">
      <g>
       <use xlink:href="#macc3420e14" x="431.714545" y="303.64" style="stroke: #000000; stroke-width: 0.8"/>
      </g>
     </g>
     <g id="text_6">
      <!-- 50000 -->
      <g transform="translate(415.808295 318.238437)scale(0.1 -0.1)">
       <defs>
        <path id="DejaVuSans-35" d="M 691 4666 
L 3169 4666 
L 3169 4134 
L 1269 4134 
L 1269 2991 
Q 1406 3038 1543 3061 
Q 1681 3084 1819 3084 
Q 2600 3084 3056 2656 
Q 3513 2228 3513 1497 
Q 3513 744 3044 326 
Q 2575 -91 1722 -91 
Q 1428 -91 1123 -41 
Q 819 9 494 109 
L 494 744 
Q 775 591 1075 516 
Q 1375 441 1709 441 
Q 2250 441 2565 725 
Q 2881 1009 2881 1497 
Q 2881 1984 2565 2268 
Q 2250 2553 1709 2553 
Q 1456 2553 1204 2497 
Q 953 2441 691 2322 
L 691 4666 
z
" transform="scale(0.015625)"/>
       </defs>
       <use xlink:href="#DejaVuSans-35"/>
       <use xlink:href="#DejaVuSans-30" x="63.623047"/>
       <use xlink:href="#DejaVuSans-30" x="127.246094"/>
       <use xlink:href="#DejaVuSans-30" x="190.869141"/>
       <use xlink:href="#DejaVuSans-30" x="254.492188"/>
      </g>
     </g>
    </g>
    <g id="text_7">
     <!-- ilość elementów -->
     <g transform="translate(208.313125 331.916562)scale(0.1 -0.1)">
      <defs>
       <path id="DejaVuSans-69" d="M 603 3500 
L 1178 3500 
L 1178 0 
L 603 0 
L 603 3500 
z
M 603 4863 
L 1178 4863 
L 1178 4134 
L 603 4134 
L 603 4863 
z
" transform="scale(0.015625)"/>
       <path id="DejaVuSans-6c" d="M 603 4863 
L 1178 4863 
L 1178 0 
L 603 0 
L 603 4863 
z
" transform="scale(0.015625)"/>
       <path id="DejaVuSans-6f" d="M 1959 3097 
Q 1497 3097 1228 2736 
Q 959 2375 959 1747 
Q 959 1119 1226 758 
Q 1494 397 1959 397 
Q 2419 397 2687 759 
Q 2956 1122 2956 1747 
Q 2956 2369 2687 2733 
Q 2419 3097 1959 3097 
z
M 1959 3584 
Q 2709 3584 3137 3096 
Q 3566 2609 3566 1747 
Q 3566 888 3137 398 
Q 2709 -91 1959 -91 
Q 1206 -91 779 398 
Q 353 888 353 1747 
Q 353 2609 779 3096 
Q 1206 3584 1959 3584 
z
" transform="scale(0.015625)"/>
       <path id="DejaVuSans-15b" d="M 2242 5119 
L 2864 5119 
L 1846 3944 
L 1367 3944 
L 2242 5119 
z
M 2834 3397 
L 2834 2853 
Q 2591 2978 2328 3040 
Q 2066 3103 1784 3103 
Q 1356 3103 1142 2972 
Q 928 2841 928 2578 
Q 928 2378 1081 2264 
Q 1234 2150 1697 2047 
L 1894 2003 
Q 2506 1872 2764 1633 
Q 3022 1394 3022 966 
Q 3022 478 2636 193 
Q 2250 -91 1575 -91 
Q 1294 -91 989 -36 
Q 684 19 347 128 
L 347 722 
Q 666 556 975 473 
Q 1284 391 1588 391 
Q 1994 391 2212 530 
Q 2431 669 2431 922 
Q 2431 1156 2273 1281 
Q 2116 1406 1581 1522 
L 1381 1569 
Q 847 1681 609 1914 
Q 372 2147 372 2553 
Q 372 3047 722 3315 
Q 1072 3584 1716 3584 
Q 2034 3584 2315 3537 
Q 2597 3491 2834 3397 
z
" transform="scale(0.015625)"/>
       <path id="DejaVuSans-107" d="M 3122 3366 
L 3122 2828 
Q 2878 2963 2633 3030 
Q 2388 3097 2138 3097 
Q 1578 3097 1268 2742 
Q 959 2388 959 1747 
Q 959 1106 1268 751 
Q 1578 397 2138 397 
Q 2388 397 2633 464 
Q 2878 531 3122 666 
L 3122 134 
Q 2881 22 2623 -34 
Q 2366 -91 2075 -91 
Q 1284 -91 818 406 
Q 353 903 353 1747 
Q 353 2603 823 3093 
Q 1294 3584 2113 3584 
Q 2378 3584 2631 3529 
Q 2884 3475 3122 3366 
z
M 2466 5119 
L 3088 5119 
L 2070 3944 
L 1591 3944 
L 2466 5119 
z
" transform="scale(0.015625)"/>
       <path id="DejaVuSans-20" transform="scale(0.015625)"/>
       <path id="DejaVuSans-65" d="M 3597 1894 
L 3597 1613 
L 953 1613 
Q 991 1019 1311 708 
Q 1631 397 2203 397 
Q 2534 397 2845 478 
Q 3156 559 3463 722 
L 3463 178 
Q 3153 47 2828 -22 
Q 2503 -91 2169 -91 
Q 1331 -91 842 396 
Q 353 884 353 1716 
Q 353 2575 817 3079 
Q 1281 3584 2069 3584 
Q 2775 3584 3186 3129 
Q 3597 2675 3597 1894 
z
M 3022 2063 
Q 3016 2534 2758 2815 
Q 2500 3097 2075 3097 
Q 1594 3097 1305 2825 
Q 1016 2553 972 2059 
L 3022 2063 
z
" transform="scale(0.015625)"/>
       <path id="DejaVuSans-6d" d="M 3328 2828 
Q 3544 3216 3844 3400 
Q 4144 3584 4550 3584 
Q 5097 3584 5394 3201 
Q 5691 2819 5691 2113 
L 5691 0 
L 5113 0 
L 5113 2094 
Q 5113 2597 4934 2840 
Q 4756 3084 4391 3084 
Q 3944 3084 3684 2787 
Q 3425 2491 3425 1978 
L 3425 0 
L 2847 0 
L 2847 2094 
Q 2847 2600 2669 2842 
Q 2491 3084 2119 3084 
Q 1678 3084 1418 2786 
Q 1159 2488 1159 1978 
L 1159 0 
L 581 0 
L 581 3500 
L 1159 3500 
L 1159 2956 
Q 1356 3278 1631 3431 
Q 1906 3584 2284 3584 
Q 2666 3584 2933 3390 
Q 3200 3197 3328 2828 
z
" transform="scale(0.015625)"/>
       <path id="DejaVuSans-6e" d="M 3513 2113 
L 3513 0 
L 2938 0 
L 2938 2094 
Q 2938 2591 2744 2837 
Q 2550 3084 2163 3084 
Q 1697 3084 1428 2787 
Q 1159 2491 1159 1978 
L 1159 0 
L 581 0 
L 581 3500 
L 1159 3500 
L 1159 2956 
Q 1366 3272 1645 3428 
Q 1925 3584 2291 3584 
Q 2894 3584 3203 3211 
Q 3513 2838 3513 2113 
z
" transform="scale(0.015625)"/>
       <path id="DejaVuSans-74" d="M 1172 4494 
L 1172 3500 
L 2356 3500 
L 2356 3053 
L 1172 3053 
L 1172 1153 
Q 1172 725 1289 603 
Q 1406 481 1766 481 
L 2356 481 
L 2356 0 
L 1766 0 
Q 1100 0 847 248 
Q 594 497 594 1153 
L 594 3053 
L 172 3053 
L 172 3500 
L 594 3500 
L 594 4494 
L 1172 4494 
z
" transform="scale(0.015625)"/>
       <path id="DejaVuSans-f3" d="M 1959 3097 
Q 1497 3097 1228 2736 
Q 959 2375 959 1747 
Q 959 1119 1226 758 
Q 1494 397 1959 397 
Q 2419 397 2687 759 
Q 2956 1122 2956 1747 
Q 2956 2369 2687 2733 
Q 2419 3097 1959 3097 
z
M 1959 3584 
Q 2709 3584 3137 3096 
Q 3566 2609 3566 1747 
Q 3566 888 3137 398 
Q 2709 -91 1959 -91 
Q 1206 -91 779 398 
Q 353 888 353 1747 
Q 353 2609 779 3096 
Q 1206 3584 1959 3584 
z
M 2394 5119 
L 3016 5119 
L 1998 3944 
L 1519 3944 
L 2394 5119 
z
" transform="scale(0.015625)"/>
       <path id="DejaVuSans-77" d="M 269 3500 
L 844 3500 
L 1563 769 
L 2278 3500 
L 2956 3500 
L 3675 769 
L 4391 3500 
L 4966 3500 
L 4050 0 
L 3372 0 
L 2619 2869 
L 1863 0 
L 1184 0 
L 269 3500 
z
" transform="scale(0.015625)"/>
      </defs>
      <use xlink:href="#DejaVuSans-69"/>
      <use xlink:href="#DejaVuSans-6c" x="27.783203"/>
      <use xlink:href="#DejaVuSans-6f" x="55.566406"/>
      <use xlink:href="#DejaVuSans-15b" x="116.748047"/>
      <use xlink:href="#DejaVuSans-107" x="168.847656"/>
      <use xlink:href="#DejaVuSans-20" x="223.828125"/>
      <use xlink:href="#DejaVuSans-65" x="255.615234"/>
      <use xlink:href="#DejaVuSans-6c" x="317.138672"/>
      <use xlink:href="#DejaVuSans-65" x="344.921875"/>
      <use xlink:href="#DejaVuSans-6d" x="406.445312"/>
      <use xlink:href="#DejaVuSans-65" x="503.857422"/>
      <use xlink:href="#DejaVuSans-6e" x="565.380859"/>
      <use xlink:href="#DejaVuSans-74" x="628.759766"/>
      <use xlink:href="#DejaVuSans-f3" x="667.96875"/>
      <use xlink:href="#DejaVuSans-77" x="729.150391"/>
     </g>
    </g>
   </g>
   <g id="matplotlib.axis_2">
    <g id="ytick_1">
     <g id="line2d_13">
      <path d="M 47.72 291.776736 
L 450 291.776736 
" clip-path="url(#p06e27a2a04)" style="fill: none; stroke: #b0b0b0; stroke-width: 0.8; stroke-linecap: square"/>
     </g>
     <g id="line2d_14">
      <defs>
       <path id="mddbddd1751" d="M 0 0 
L -3.5 0 
" style="stroke: #000000; stroke-width: 0.8"/>
      </defs>
      <g>
       <use xlink:href="#mddbddd1751" x="47.72" y="291.776736" style="stroke: #000000; stroke-width: 0.8"/>
      </g>
     </g>
     <g id="text_8">
      <!-- 0.0 -->
      <g transform="translate(24.816875 295.575955)scale(0.1 -0.1)">
       <defs>
        <path id="DejaVuSans-2e" d="M 684 794 
L 1344 794 
L 1344 0 
L 684 0 
L 684 794 
z
" transform="scale(0.015625)"/>
       </defs>
       <use xlink:href="#DejaVuSans-30"/>
       <use xlink:href="#DejaVuSans-2e" x="63.623047"/>
       <use xlink:href="#DejaVuSans-30" x="95.410156"/>
      </g>
     </g>
    </g>
    <g id="ytick_2">
     <g id="line2d_15">
      <path d="M 47.72 253.813502 
L 450 253.813502 
" clip-path="url(#p06e27a2a04)" style="fill: none; stroke: #b0b0b0; stroke-width: 0.8; stroke-linecap: square"/>
     </g>
     <g id="line2d_16">
      <g>
       <use xlink:href="#mddbddd1751" x="47.72" y="253.813502" style="stroke: #000000; stroke-width: 0.8"/>
      </g>
     </g>
     <g id="text_9">
      <!-- 0.2 -->
      <g transform="translate(24.816875 257.612721)scale(0.1 -0.1)">
       <use xlink:href="#DejaVuSans-30"/>
       <use xlink:href="#DejaVuSans-2e" x="63.623047"/>
       <use xlink:href="#DejaVuSans-32" x="95.410156"/>
      </g>
     </g>
    </g>
    <g id="ytick_3">
     <g id="line2d_17">
      <path d="M 47.72 215.850269 
L 450 215.850269 
" clip-path="url(#p06e27a2a04)" style="fill: none; stroke: #b0b0b0; stroke-width: 0.8; stroke-linecap: square"/>
     </g>
     <g id="line2d_18">
      <g>
       <use xlink:href="#mddbddd1751" x="47.72" y="215.850269" style="stroke: #000000; stroke-width: 0.8"/>
      </g>
     </g>
     <g id="text_10">
      <!-- 0.4 -->
      <g transform="translate(24.816875 219.649488)scale(0.1 -0.1)">
       <use xlink:href="#DejaVuSans-30"/>
       <use xlink:href="#DejaVuSans-2e" x="63.623047"/>
       <use xlink:href="#DejaVuSans-34" x="95.410156"/>
      </g>
     </g>
    </g>
    <g id="ytick_4">
     <g id="line2d_19">
      <path d="M 47.72 177.887036 
L 450 177.887036 
" clip-path="url(#p06e27a2a04)" style="fill: none; stroke: #b0b0b0; stroke-width: 0.8; stroke-linecap: square"/>
     </g>
     <g id="line2d_20">
      <g>
       <use xlink:href="#mddbddd1751" x="47.72" y="177.887036" style="stroke: #000000; stroke-width: 0.8"/>
      </g>
     </g>
     <g id="text_11">
      <!-- 0.6 -->
      <g transform="translate(24.816875 181.686254)scale(0.1 -0.1)">
       <defs>
        <path id="DejaVuSans-36" d="M 2113 2584 
Q 1688 2584 1439 2293 
Q 1191 2003 1191 1497 
Q 1191 994 1439 701 
Q 1688 409 2113 409 
Q 2538 409 2786 701 
Q 3034 994 3034 1497 
Q 3034 2003 2786 2293 
Q 2538 2584 2113 2584 
z
M 3366 4563 
L 3366 3988 
Q 3128 4100 2886 4159 
Q 2644 4219 2406 4219 
Q 1781 4219 1451 3797 
Q 1122 3375 1075 2522 
Q 1259 2794 1537 2939 
Q 1816 3084 2150 3084 
Q 2853 3084 3261 2657 
Q 3669 2231 3669 1497 
Q 3669 778 3244 343 
Q 2819 -91 2113 -91 
Q 1303 -91 875 529 
Q 447 1150 447 2328 
Q 447 3434 972 4092 
Q 1497 4750 2381 4750 
Q 2619 4750 2861 4703 
Q 3103 4656 3366 4563 
z
" transform="scale(0.015625)"/>
       </defs>
       <use xlink:href="#DejaVuSans-30"/>
       <use xlink:href="#DejaVuSans-2e" x="63.623047"/>
       <use xlink:href="#DejaVuSans-36" x="95.410156"/>
      </g>
     </g>
    </g>
    <g id="ytick_5">
     <g id="line2d_21">
      <path d="M 47.72 139.923802 
L 450 139.923802 
" clip-path="url(#p06e27a2a04)" style="fill: none; stroke: #b0b0b0; stroke-width: 0.8; stroke-linecap: square"/>
     </g>
     <g id="line2d_22">
      <g>
       <use xlink:href="#mddbddd1751" x="47.72" y="139.923802" style="stroke: #000000; stroke-width: 0.8"/>
      </g>
     </g>
     <g id="text_12">
      <!-- 0.8 -->
      <g transform="translate(24.816875 143.723021)scale(0.1 -0.1)">
       <defs>
        <path id="DejaVuSans-38" d="M 2034 2216 
Q 1584 2216 1326 1975 
Q 1069 1734 1069 1313 
Q 1069 891 1326 650 
Q 1584 409 2034 409 
Q 2484 409 2743 651 
Q 3003 894 3003 1313 
Q 3003 1734 2745 1975 
Q 2488 2216 2034 2216 
z
M 1403 2484 
Q 997 2584 770 2862 
Q 544 3141 544 3541 
Q 544 4100 942 4425 
Q 1341 4750 2034 4750 
Q 2731 4750 3128 4425 
Q 3525 4100 3525 3541 
Q 3525 3141 3298 2862 
Q 3072 2584 2669 2484 
Q 3125 2378 3379 2068 
Q 3634 1759 3634 1313 
Q 3634 634 3220 271 
Q 2806 -91 2034 -91 
Q 1263 -91 848 271 
Q 434 634 434 1313 
Q 434 1759 690 2068 
Q 947 2378 1403 2484 
z
M 1172 3481 
Q 1172 3119 1398 2916 
Q 1625 2713 2034 2713 
Q 2441 2713 2670 2916 
Q 2900 3119 2900 3481 
Q 2900 3844 2670 4047 
Q 2441 4250 2034 4250 
Q 1625 4250 1398 4047 
Q 1172 3844 1172 3481 
z
" transform="scale(0.015625)"/>
       </defs>
       <use xlink:href="#DejaVuSans-30"/>
       <use xlink:href="#DejaVuSans-2e" x="63.623047"/>
       <use xlink:href="#DejaVuSans-38" x="95.410156"/>
      </g>
     </g>
    </g>
    <g id="ytick_6">
     <g id="line2d_23">
      <path d="M 47.72 101.960569 
L 450 101.960569 
" clip-path="url(#p06e27a2a04)" style="fill: none; stroke: #b0b0b0; stroke-width: 0.8; stroke-linecap: square"/>
     </g>
     <g id="line2d_24">
      <g>
       <use xlink:href="#mddbddd1751" x="47.72" y="101.960569" style="stroke: #000000; stroke-width: 0.8"/>
      </g>
     </g>
     <g id="text_13">
      <!-- 1.0 -->
      <g transform="translate(24.816875 105.759788)scale(0.1 -0.1)">
       <use xlink:href="#DejaVuSans-31"/>
       <use xlink:href="#DejaVuSans-2e" x="63.623047"/>
       <use xlink:href="#DejaVuSans-30" x="95.410156"/>
      </g>
     </g>
    </g>
    <g id="ytick_7">
     <g id="line2d_25">
      <path d="M 47.72 63.997336 
L 450 63.997336 
" clip-path="url(#p06e27a2a04)" style="fill: none; stroke: #b0b0b0; stroke-width: 0.8; stroke-linecap: square"/>
     </g>
     <g id="line2d_26">
      <g>
       <use xlink:href="#mddbddd1751" x="47.72" y="63.997336" style="stroke: #000000; stroke-width: 0.8"/>
      </g>
     </g>
     <g id="text_14">
      <!-- 1.2 -->
      <g transform="translate(24.816875 67.796554)scale(0.1 -0.1)">
       <use xlink:href="#DejaVuSans-31"/>
       <use xlink:href="#DejaVuSans-2e" x="63.623047"/>
       <use xlink:href="#DejaVuSans-32" x="95.410156"/>
      </g>
     </g>
    </g>
    <g id="text_15">
     <!-- operacje dominujące -->
     <g transform="translate(18.737188 225.486969)rotate(-90)scale(0.1 -0.1)">
      <defs>
       <path id="DejaVuSans-70" d="M 1159 525 
L 1159 -1331 
L 581 -1331 
L 581 3500 
L 1159 3500 
L 1159 2969 
Q 1341 3281 1617 3432 
Q 1894 3584 2278 3584 
Q 2916 3584 3314 3078 
Q 3713 2572 3713 1747 
Q 3713 922 3314 415 
Q 2916 -91 2278 -91 
Q 1894 -91 1617 61 
Q 1341 213 1159 525 
z
M 3116 1747 
Q 3116 2381 2855 2742 
Q 2594 3103 2138 3103 
Q 1681 3103 1420 2742 
Q 1159 2381 1159 1747 
Q 1159 1113 1420 752 
Q 1681 391 2138 391 
Q 2594 391 2855 752 
Q 3116 1113 3116 1747 
z
" transform="scale(0.015625)"/>
       <path id="DejaVuSans-72" d="M 2631 2963 
Q 2534 3019 2420 3045 
Q 2306 3072 2169 3072 
Q 1681 3072 1420 2755 
Q 1159 2438 1159 1844 
L 1159 0 
L 581 0 
L 581 3500 
L 1159 3500 
L 1159 2956 
Q 1341 3275 1631 3429 
Q 1922 3584 2338 3584 
Q 2397 3584 2469 3576 
Q 2541 3569 2628 3553 
L 2631 2963 
z
" transform="scale(0.015625)"/>
       <path id="DejaVuSans-61" d="M 2194 1759 
Q 1497 1759 1228 1600 
Q 959 1441 959 1056 
Q 959 750 1161 570 
Q 1363 391 1709 391 
Q 2188 391 2477 730 
Q 2766 1069 2766 1631 
L 2766 1759 
L 2194 1759 
z
M 3341 1997 
L 3341 0 
L 2766 0 
L 2766 531 
Q 2569 213 2275 61 
Q 1981 -91 1556 -91 
Q 1019 -91 701 211 
Q 384 513 384 1019 
Q 384 1609 779 1909 
Q 1175 2209 1959 2209 
L 2766 2209 
L 2766 2266 
Q 2766 2663 2505 2880 
Q 2244 3097 1772 3097 
Q 1472 3097 1187 3025 
Q 903 2953 641 2809 
L 641 3341 
Q 956 3463 1253 3523 
Q 1550 3584 1831 3584 
Q 2591 3584 2966 3190 
Q 3341 2797 3341 1997 
z
" transform="scale(0.015625)"/>
       <path id="DejaVuSans-63" d="M 3122 3366 
L 3122 2828 
Q 2878 2963 2633 3030 
Q 2388 3097 2138 3097 
Q 1578 3097 1268 2742 
Q 959 2388 959 1747 
Q 959 1106 1268 751 
Q 1578 397 2138 397 
Q 2388 397 2633 464 
Q 2878 531 3122 666 
L 3122 134 
Q 2881 22 2623 -34 
Q 2366 -91 2075 -91 
Q 1284 -91 818 406 
Q 353 903 353 1747 
Q 353 2603 823 3093 
Q 1294 3584 2113 3584 
Q 2378 3584 2631 3529 
Q 2884 3475 3122 3366 
z
" transform="scale(0.015625)"/>
       <path id="DejaVuSans-6a" d="M 603 3500 
L 1178 3500 
L 1178 -63 
Q 1178 -731 923 -1031 
Q 669 -1331 103 -1331 
L -116 -1331 
L -116 -844 
L 38 -844 
Q 366 -844 484 -692 
Q 603 -541 603 -63 
L 603 3500 
z
M 603 4863 
L 1178 4863 
L 1178 4134 
L 603 4134 
L 603 4863 
z
" transform="scale(0.015625)"/>
       <path id="DejaVuSans-64" d="M 2906 2969 
L 2906 4863 
L 3481 4863 
L 3481 0 
L 2906 0 
L 2906 525 
Q 2725 213 2448 61 
Q 2172 -91 1784 -91 
Q 1150 -91 751 415 
Q 353 922 353 1747 
Q 353 2572 751 3078 
Q 1150 3584 1784 3584 
Q 2172 3584 2448 3432 
Q 2725 3281 2906 2969 
z
M 947 1747 
Q 947 1113 1208 752 
Q 1469 391 1925 391 
Q 2381 391 2643 752 
Q 2906 1113 2906 1747 
Q 2906 2381 2643 2742 
Q 2381 3103 1925 3103 
Q 1469 3103 1208 2742 
Q 947 2381 947 1747 
z
" transform="scale(0.015625)"/>
       <path id="DejaVuSans-75" d="M 544 1381 
L 544 3500 
L 1119 3500 
L 1119 1403 
Q 1119 906 1312 657 
Q 1506 409 1894 409 
Q 2359 409 2629 706 
Q 2900 1003 2900 1516 
L 2900 3500 
L 3475 3500 
L 3475 0 
L 2900 0 
L 2900 538 
Q 2691 219 2414 64 
Q 2138 -91 1772 -91 
Q 1169 -91 856 284 
Q 544 659 544 1381 
z
M 1991 3584 
L 1991 3584 
z
" transform="scale(0.015625)"/>
       <path id="DejaVuSans-105" d="M 2194 1759 
Q 1497 1759 1228 1600 
Q 959 1441 959 1056 
Q 959 750 1161 570 
Q 1363 391 1709 391 
Q 2188 391 2477 730 
Q 2766 1069 2766 1631 
L 2766 1759 
L 2194 1759 
z
M 3341 1997 
L 3341 0 
L 2766 0 
L 2766 531 
Q 2569 213 2275 61 
Q 1981 -91 1556 -91 
Q 1019 -91 701 211 
Q 384 513 384 1019 
Q 384 1609 779 1909 
Q 1175 2209 1959 2209 
L 2766 2209 
L 2766 2266 
Q 2766 2663 2505 2880 
Q 2244 3097 1772 3097 
Q 1472 3097 1187 3025 
Q 903 2953 641 2809 
L 641 3341 
Q 956 3463 1253 3523 
Q 1550 3584 1831 3584 
Q 2591 3584 2966 3190 
Q 3341 2797 3341 1997 
z
M 2775 0 
L 3147 0 
Q 3006 -191 2939 -328 
Q 2872 -466 2872 -563 
Q 2872 -706 2958 -778 
Q 3044 -850 3213 -850 
Q 3313 -850 3409 -826 
Q 3506 -803 3603 -756 
L 3603 -1172 
Q 3484 -1203 3378 -1218 
Q 3272 -1234 3178 -1234 
Q 2797 -1234 2617 -1098 
Q 2438 -963 2438 -672 
Q 2438 -522 2520 -358 
Q 2603 -194 2775 0 
z
" transform="scale(0.015625)"/>
      </defs>
      <use xlink:href="#DejaVuSans-6f"/>
      <use xlink:href="#DejaVuSans-70" x="61.181641"/>
      <use xlink:href="#DejaVuSans-65" x="124.658203"/>
      <use xlink:href="#DejaVuSans-72" x="186.181641"/>
      <use xlink:href="#DejaVuSans-61" x="227.294922"/>
      <use xlink:href="#DejaVuSans-63" x="288.574219"/>
      <use xlink:href="#DejaVuSans-6a" x="343.554688"/>
      <use xlink:href="#DejaVuSans-65" x="371.337891"/>
      <use xlink:href="#DejaVuSans-20" x="432.861328"/>
      <use xlink:href="#DejaVuSans-64" x="464.648438"/>
      <use xlink:href="#DejaVuSans-6f" x="528.125"/>
      <use xlink:href="#DejaVuSans-6d" x="589.306641"/>
      <use xlink:href="#DejaVuSans-69" x="686.71875"/>
      <use xlink:href="#DejaVuSans-6e" x="714.501953"/>
      <use xlink:href="#DejaVuSans-75" x="777.880859"/>
      <use xlink:href="#DejaVuSans-6a" x="841.259766"/>
      <use xlink:href="#DejaVuSans-105" x="869.042969"/>
      <use xlink:href="#DejaVuSans-63" x="930.322266"/>
      <use xlink:href="#DejaVuSans-65" x="985.302734"/>
     </g>
    </g>
    <g id="text_16">
     <!-- 1e9 -->
     <g transform="translate(47.72 39.648)scale(0.1 -0.1)">
      <defs>
       <path id="DejaVuSans-39" d="M 703 97 
L 703 672 
Q 941 559 1184 500 
Q 1428 441 1663 441 
Q 2288 441 2617 861 
Q 2947 1281 2994 2138 
Q 2813 1869 2534 1725 
Q 2256 1581 1919 1581 
Q 1219 1581 811 2004 
Q 403 2428 403 3163 
Q 403 3881 828 4315 
Q 1253 4750 1959 4750 
Q 2769 4750 3195 4129 
Q 3622 3509 3622 2328 
Q 3622 1225 3098 567 
Q 2575 -91 1691 -91 
Q 1453 -91 1209 -44 
Q 966 3 703 97 
z
M 1959 2075 
Q 2384 2075 2632 2365 
Q 2881 2656 2881 3163 
Q 2881 3666 2632 3958 
Q 2384 4250 1959 4250 
Q 1534 4250 1286 3958 
Q 1038 3666 1038 3163 
Q 1038 2656 1286 2365 
Q 1534 2075 1959 2075 
z
" transform="scale(0.015625)"/>
      </defs>
      <use xlink:href="#DejaVuSans-31"/>
      <use xlink:href="#DejaVuSans-65" x="63.623047"/>
      <use xlink:href="#DejaVuSans-39" x="125.146484"/>
     </g>
    </g>
   </g>
   <g id="line2d_27">
    <path d="M 66.005455 291.776726 
L 74.067178 291.659384 
L 82.128901 291.311541 
L 90.190625 290.733196 
L 98.252348 289.92435 
L 106.314072 288.885003 
L 114.375795 287.615155 
L 122.437519 286.114805 
L 130.499242 284.383955 
L 138.560966 282.422603 
L 146.622689 280.23075 
L 154.684412 277.808396 
L 162.746136 275.155541 
L 170.807859 272.272184 
L 178.869583 269.158326 
L 186.931306 265.813968 
L 194.99303 262.239108 
L 203.054753 258.433746 
L 211.116477 254.397884 
L 219.1782 250.13152 
L 227.972807 245.21442 
L 236.767415 240.023004 
L 245.562022 234.557272 
L 254.35663 228.817225 
L 263.151237 222.802863 
L 271.945844 216.514185 
L 280.740452 209.951192 
L 289.535059 203.113883 
L 298.329667 196.002259 
L 307.124274 188.616319 
L 315.918881 180.956064 
L 325.446373 172.347897 
L 334.973864 163.417791 
L 344.501355 154.165744 
L 354.028847 144.591758 
L 363.556338 134.695832 
L 373.083829 124.477967 
L 382.611321 113.938162 
L 392.138812 103.076417 
L 401.666304 91.892732 
L 411.193795 80.387108 
L 421.45417 67.636397 
L 431.714545 54.512312 
L 431.714545 54.512312 
" clip-path="url(#p06e27a2a04)" style="fill: none; stroke: #1f77b4; stroke-width: 1.5; stroke-linecap: square"/>
   </g>
   <g id="patch_3">
    <path d="M 47.72 303.64 
L 47.72 42.648 
" style="fill: none; stroke: #000000; stroke-width: 0.8; stroke-linejoin: miter; stroke-linecap: square"/>
   </g>
   <g id="patch_4">
    <path d="M 450 303.64 
L 450 42.648 
" style="fill: none; stroke: #000000; stroke-width: 0.8; stroke-linejoin: miter; stroke-linecap: square"/>
   </g>
   <g id="patch_5">
    <path d="M 47.72 303.64 
L 450 303.64 
" style="fill: none; stroke: #000000; stroke-width: 0.8; stroke-linejoin: miter; stroke-linecap: square"/>
   </g>
   <g id="patch_6">
    <path d="M 47.72 42.648 
L 450 42.648 
" style="fill: none; stroke: #000000; stroke-width: 0.8; stroke-linejoin: miter; stroke-linecap: square"/>
   </g>
   <g id="text_17">
    <!-- Pomiar ilośći operacji dominujących  -->
    <g transform="translate(139.569063 22.634625)scale(0.12 -0.12)">
     <defs>
      <path id="DejaVuSans-50" d="M 1259 4147 
L 1259 2394 
L 2053 2394 
Q 2494 2394 2734 2622 
Q 2975 2850 2975 3272 
Q 2975 3691 2734 3919 
Q 2494 4147 2053 4147 
L 1259 4147 
z
M 628 4666 
L 2053 4666 
Q 2838 4666 3239 4311 
Q 3641 3956 3641 3272 
Q 3641 2581 3239 2228 
Q 2838 1875 2053 1875 
L 1259 1875 
L 1259 0 
L 628 0 
L 628 4666 
z
" transform="scale(0.015625)"/>
      <path id="DejaVuSans-79" d="M 2059 -325 
Q 1816 -950 1584 -1140 
Q 1353 -1331 966 -1331 
L 506 -1331 
L 506 -850 
L 844 -850 
Q 1081 -850 1212 -737 
Q 1344 -625 1503 -206 
L 1606 56 
L 191 3500 
L 800 3500 
L 1894 763 
L 2988 3500 
L 3597 3500 
L 2059 -325 
z
" transform="scale(0.015625)"/>
      <path id="DejaVuSans-68" d="M 3513 2113 
L 3513 0 
L 2938 0 
L 2938 2094 
Q 2938 2591 2744 2837 
Q 2550 3084 2163 3084 
Q 1697 3084 1428 2787 
Q 1159 2491 1159 1978 
L 1159 0 
L 581 0 
L 581 4863 
L 1159 4863 
L 1159 2956 
Q 1366 3272 1645 3428 
Q 1925 3584 2291 3584 
Q 2894 3584 3203 3211 
Q 3513 2838 3513 2113 
z
" transform="scale(0.015625)"/>
     </defs>
     <use xlink:href="#DejaVuSans-50"/>
     <use xlink:href="#DejaVuSans-6f" x="56.677734"/>
     <use xlink:href="#DejaVuSans-6d" x="117.859375"/>
     <use xlink:href="#DejaVuSans-69" x="215.271484"/>
     <use xlink:href="#DejaVuSans-61" x="243.054688"/>
     <use xlink:href="#DejaVuSans-72" x="304.333984"/>
     <use xlink:href="#DejaVuSans-20" x="345.447266"/>
     <use xlink:href="#DejaVuSans-69" x="377.234375"/>
     <use xlink:href="#DejaVuSans-6c" x="405.017578"/>
     <use xlink:href="#DejaVuSans-6f" x="432.800781"/>
     <use xlink:href="#DejaVuSans-15b" x="493.982422"/>
     <use xlink:href="#DejaVuSans-107" x="546.082031"/>
     <use xlink:href="#DejaVuSans-69" x="601.0625"/>
     <use xlink:href="#DejaVuSans-20" x="628.845703"/>
     <use xlink:href="#DejaVuSans-6f" x="660.632812"/>
     <use xlink:href="#DejaVuSans-70" x="721.814453"/>
     <use xlink:href="#DejaVuSans-65" x="785.291016"/>
     <use xlink:href="#DejaVuSans-72" x="846.814453"/>
     <use xlink:href="#DejaVuSans-61" x="887.927734"/>
     <use xlink:href="#DejaVuSans-63" x="949.207031"/>
     <use xlink:href="#DejaVuSans-6a" x="1004.1875"/>
     <use xlink:href="#DejaVuSans-69" x="1031.970703"/>
     <use xlink:href="#DejaVuSans-20" x="1059.753906"/>
     <use xlink:href="#DejaVuSans-64" x="1091.541016"/>
     <use xlink:href="#DejaVuSans-6f" x="1155.017578"/>
     <use xlink:href="#DejaVuSans-6d" x="1216.199219"/>
     <use xlink:href="#DejaVuSans-69" x="1313.611328"/>
     <use xlink:href="#DejaVuSans-6e" x="1341.394531"/>
     <use xlink:href="#DejaVuSans-75" x="1404.773438"/>
     <use xlink:href="#DejaVuSans-6a" x="1468.152344"/>
     <use xlink:href="#DejaVuSans-105" x="1495.935547"/>
     <use xlink:href="#DejaVuSans-63" x="1557.214844"/>
     <use xlink:href="#DejaVuSans-79" x="1612.195312"/>
     <use xlink:href="#DejaVuSans-63" x="1671.375"/>
     <use xlink:href="#DejaVuSans-68" x="1726.355469"/>
     <use xlink:href="#DejaVuSans-20" x="1789.734375"/>
    </g>
    <!--  w zależności od liczby elementów dla selection sort -->
    <g transform="translate(92.120313 36.648)scale(0.12 -0.12)">
     <defs>
      <path id="DejaVuSans-7a" d="M 353 3500 
L 3084 3500 
L 3084 2975 
L 922 459 
L 3084 459 
L 3084 0 
L 275 0 
L 275 525 
L 2438 3041 
L 353 3041 
L 353 3500 
z
" transform="scale(0.015625)"/>
      <path id="DejaVuSans-17c" d="M 1378 4863 
L 1953 4863 
L 1953 4134 
L 1378 4134 
L 1378 4863 
z
M 1672 3584 
L 1672 3584 
z
M 353 3500 
L 3084 3500 
L 3084 2975 
L 922 459 
L 3084 459 
L 3084 0 
L 275 0 
L 275 525 
L 2438 3041 
L 353 3041 
L 353 3500 
z
" transform="scale(0.015625)"/>
      <path id="DejaVuSans-62" d="M 3116 1747 
Q 3116 2381 2855 2742 
Q 2594 3103 2138 3103 
Q 1681 3103 1420 2742 
Q 1159 2381 1159 1747 
Q 1159 1113 1420 752 
Q 1681 391 2138 391 
Q 2594 391 2855 752 
Q 3116 1113 3116 1747 
z
M 1159 2969 
Q 1341 3281 1617 3432 
Q 1894 3584 2278 3584 
Q 2916 3584 3314 3078 
Q 3713 2572 3713 1747 
Q 3713 922 3314 415 
Q 2916 -91 2278 -91 
Q 1894 -91 1617 61 
Q 1341 213 1159 525 
L 1159 0 
L 581 0 
L 581 4863 
L 1159 4863 
L 1159 2969 
z
" transform="scale(0.015625)"/>
      <path id="DejaVuSans-73" d="M 2834 3397 
L 2834 2853 
Q 2591 2978 2328 3040 
Q 2066 3103 1784 3103 
Q 1356 3103 1142 2972 
Q 928 2841 928 2578 
Q 928 2378 1081 2264 
Q 1234 2150 1697 2047 
L 1894 2003 
Q 2506 1872 2764 1633 
Q 3022 1394 3022 966 
Q 3022 478 2636 193 
Q 2250 -91 1575 -91 
Q 1294 -91 989 -36 
Q 684 19 347 128 
L 347 722 
Q 666 556 975 473 
Q 1284 391 1588 391 
Q 1994 391 2212 530 
Q 2431 669 2431 922 
Q 2431 1156 2273 1281 
Q 2116 1406 1581 1522 
L 1381 1569 
Q 847 1681 609 1914 
Q 372 2147 372 2553 
Q 372 3047 722 3315 
Q 1072 3584 1716 3584 
Q 2034 3584 2315 3537 
Q 2597 3491 2834 3397 
z
" transform="scale(0.015625)"/>
     </defs>
     <use xlink:href="#DejaVuSans-20"/>
     <use xlink:href="#DejaVuSans-77" x="31.787109"/>
     <use xlink:href="#DejaVuSans-20" x="113.574219"/>
     <use xlink:href="#DejaVuSans-7a" x="145.361328"/>
     <use xlink:href="#DejaVuSans-61" x="197.851562"/>
     <use xlink:href="#DejaVuSans-6c" x="259.130859"/>
     <use xlink:href="#DejaVuSans-65" x="286.914062"/>
     <use xlink:href="#DejaVuSans-17c" x="348.4375"/>
     <use xlink:href="#DejaVuSans-6e" x="400.927734"/>
     <use xlink:href="#DejaVuSans-6f" x="464.306641"/>
     <use xlink:href="#DejaVuSans-15b" x="525.488281"/>
     <use xlink:href="#DejaVuSans-63" x="577.587891"/>
     <use xlink:href="#DejaVuSans-69" x="632.568359"/>
     <use xlink:href="#DejaVuSans-20" x="660.351562"/>
     <use xlink:href="#DejaVuSans-6f" x="692.138672"/>
     <use xlink:href="#DejaVuSans-64" x="753.320312"/>
     <use xlink:href="#DejaVuSans-20" x="816.796875"/>
     <use xlink:href="#DejaVuSans-6c" x="848.583984"/>
     <use xlink:href="#DejaVuSans-69" x="876.367188"/>
     <use xlink:href="#DejaVuSans-63" x="904.150391"/>
     <use xlink:href="#DejaVuSans-7a" x="959.130859"/>
     <use xlink:href="#DejaVuSans-62" x="1011.621094"/>
     <use xlink:href="#DejaVuSans-79" x="1075.097656"/>
     <use xlink:href="#DejaVuSans-20" x="1134.277344"/>
     <use xlink:href="#DejaVuSans-65" x="1166.064453"/>
     <use xlink:href="#DejaVuSans-6c" x="1227.587891"/>
     <use xlink:href="#DejaVuSans-65" x="1255.371094"/>
     <use xlink:href="#DejaVuSans-6d" x="1316.894531"/>
     <use xlink:href="#DejaVuSans-65" x="1414.306641"/>
     <use xlink:href="#DejaVuSans-6e" x="1475.830078"/>
     <use xlink:href="#DejaVuSans-74" x="1539.208984"/>
     <use xlink:href="#DejaVuSans-f3" x="1578.417969"/>
     <use xlink:href="#DejaVuSans-77" x="1639.599609"/>
     <use xlink:href="#DejaVuSans-20" x="1721.386719"/>
     <use xlink:href="#DejaVuSans-64" x="1753.173828"/>
     <use xlink:href="#DejaVuSans-6c" x="1816.650391"/>
     <use xlink:href="#DejaVuSans-61" x="1844.433594"/>
     <use xlink:href="#DejaVuSans-20" x="1905.712891"/>
     <use xlink:href="#DejaVuSans-73" x="1937.5"/>
     <use xlink:href="#DejaVuSans-65" x="1989.599609"/>
     <use xlink:href="#DejaVuSans-6c" x="2051.123047"/>
     <use xlink:href="#DejaVuSans-65" x="2078.90625"/>
     <use xlink:href="#DejaVuSans-63" x="2140.429688"/>
     <use xlink:href="#DejaVuSans-74" x="2195.410156"/>
     <use xlink:href="#DejaVuSans-69" x="2234.619141"/>
     <use xlink:href="#DejaVuSans-6f" x="2262.402344"/>
     <use xlink:href="#DejaVuSans-6e" x="2323.583984"/>
     <use xlink:href="#DejaVuSans-20" x="2386.962891"/>
     <use xlink:href="#DejaVuSans-73" x="2418.75"/>
     <use xlink:href="#DejaVuSans-6f" x="2470.849609"/>
     <use xlink:href="#DejaVuSans-72" x="2532.03125"/>
     <use xlink:href="#DejaVuSans-74" x="2573.144531"/>
    </g>
   </g>
   <g id="legend_1">
    <g id="patch_7">
     <path d="M 54.72 80.40425 
L 280.235625 80.40425 
Q 282.235625 80.40425 282.235625 78.40425 
L 282.235625 49.648 
Q 282.235625 47.648 280.235625 47.648 
L 54.72 47.648 
Q 52.72 47.648 52.72 49.648 
L 52.72 78.40425 
Q 52.72 80.40425 54.72 80.40425 
z
" style="fill: #ffffff; opacity: 0.8; stroke: #cccccc; stroke-linejoin: miter"/>
    </g>
    <g id="PathCollection_2">
     <g>
      <use xlink:href="#m60de76b28b" x="66.72" y="57.021437" style="fill: #1f77b4; stroke: #1f77b4"/>
     </g>
    </g>
    <g id="text_18">
     <!-- zmierzona liość operacji dominujących -->
     <g transform="translate(84.72 59.646437)scale(0.1 -0.1)">
      <use xlink:href="#DejaVuSans-7a"/>
      <use xlink:href="#DejaVuSans-6d" x="52.490234"/>
      <use xlink:href="#DejaVuSans-69" x="149.902344"/>
      <use xlink:href="#DejaVuSans-65" x="177.685547"/>
      <use xlink:href="#DejaVuSans-72" x="239.208984"/>
      <use xlink:href="#DejaVuSans-7a" x="280.322266"/>
      <use xlink:href="#DejaVuSans-6f" x="332.8125"/>
      <use xlink:href="#DejaVuSans-6e" x="393.994141"/>
      <use xlink:href="#DejaVuSans-61" x="457.373047"/>
      <use xlink:href="#DejaVuSans-20" x="518.652344"/>
      <use xlink:href="#DejaVuSans-6c" x="550.439453"/>
      <use xlink:href="#DejaVuSans-69" x="578.222656"/>
      <use xlink:href="#DejaVuSans-6f" x="606.005859"/>
      <use xlink:href="#DejaVuSans-15b" x="667.1875"/>
      <use xlink:href="#DejaVuSans-107" x="719.287109"/>
      <use xlink:href="#DejaVuSans-20" x="774.267578"/>
      <use xlink:href="#DejaVuSans-6f" x="806.054688"/>
      <use xlink:href="#DejaVuSans-70" x="867.236328"/>
      <use xlink:href="#DejaVuSans-65" x="930.712891"/>
      <use xlink:href="#DejaVuSans-72" x="992.236328"/>
      <use xlink:href="#DejaVuSans-61" x="1033.349609"/>
      <use xlink:href="#DejaVuSans-63" x="1094.628906"/>
      <use xlink:href="#DejaVuSans-6a" x="1149.609375"/>
      <use xlink:href="#DejaVuSans-69" x="1177.392578"/>
      <use xlink:href="#DejaVuSans-20" x="1205.175781"/>
      <use xlink:href="#DejaVuSans-64" x="1236.962891"/>
      <use xlink:href="#DejaVuSans-6f" x="1300.439453"/>
      <use xlink:href="#DejaVuSans-6d" x="1361.621094"/>
      <use xlink:href="#DejaVuSans-69" x="1459.033203"/>
      <use xlink:href="#DejaVuSans-6e" x="1486.816406"/>
      <use xlink:href="#DejaVuSans-75" x="1550.195312"/>
      <use xlink:href="#DejaVuSans-6a" x="1613.574219"/>
      <use xlink:href="#DejaVuSans-105" x="1641.357422"/>
      <use xlink:href="#DejaVuSans-63" x="1702.636719"/>
      <use xlink:href="#DejaVuSans-79" x="1757.617188"/>
      <use xlink:href="#DejaVuSans-63" x="1816.796875"/>
      <use xlink:href="#DejaVuSans-68" x="1871.777344"/>
     </g>
    </g>
    <g id="line2d_28">
     <path d="M 56.72 70.824563 
L 66.72 70.824563 
L 76.72 70.824563 
" style="fill: none; stroke: #1f77b4; stroke-width: 1.5; stroke-linecap: square"/>
    </g>
    <g id="text_19">
     <!-- funkcja dopasowana: 0.49999 * x^2 -->
     <g transform="translate(84.72 74.324563)scale(0.1 -0.1)">
      <defs>
       <path id="DejaVuSans-66" d="M 2375 4863 
L 2375 4384 
L 1825 4384 
Q 1516 4384 1395 4259 
Q 1275 4134 1275 3809 
L 1275 3500 
L 2222 3500 
L 2222 3053 
L 1275 3053 
L 1275 0 
L 697 0 
L 697 3053 
L 147 3053 
L 147 3500 
L 697 3500 
L 697 3744 
Q 697 4328 969 4595 
Q 1241 4863 1831 4863 
L 2375 4863 
z
" transform="scale(0.015625)"/>
       <path id="DejaVuSans-6b" d="M 581 4863 
L 1159 4863 
L 1159 1991 
L 2875 3500 
L 3609 3500 
L 1753 1863 
L 3688 0 
L 2938 0 
L 1159 1709 
L 1159 0 
L 581 0 
L 581 4863 
z
" transform="scale(0.015625)"/>
       <path id="DejaVuSans-3a" d="M 750 794 
L 1409 794 
L 1409 0 
L 750 0 
L 750 794 
z
M 750 3309 
L 1409 3309 
L 1409 2516 
L 750 2516 
L 750 3309 
z
" transform="scale(0.015625)"/>
       <path id="DejaVuSans-2a" d="M 3009 3897 
L 1888 3291 
L 3009 2681 
L 2828 2375 
L 1778 3009 
L 1778 1831 
L 1422 1831 
L 1422 3009 
L 372 2375 
L 191 2681 
L 1313 3291 
L 191 3897 
L 372 4206 
L 1422 3572 
L 1422 4750 
L 1778 4750 
L 1778 3572 
L 2828 4206 
L 3009 3897 
z
" transform="scale(0.015625)"/>
       <path id="DejaVuSans-78" d="M 3513 3500 
L 2247 1797 
L 3578 0 
L 2900 0 
L 1881 1375 
L 863 0 
L 184 0 
L 1544 1831 
L 300 3500 
L 978 3500 
L 1906 2253 
L 2834 3500 
L 3513 3500 
z
" transform="scale(0.015625)"/>
       <path id="DejaVuSans-5e" d="M 2988 4666 
L 4684 2925 
L 4056 2925 
L 2681 4159 
L 1306 2925 
L 678 2925 
L 2375 4666 
L 2988 4666 
z
" transform="scale(0.015625)"/>
      </defs>
      <use xlink:href="#DejaVuSans-66"/>
      <use xlink:href="#DejaVuSans-75" x="35.205078"/>
      <use xlink:href="#DejaVuSans-6e" x="98.583984"/>
      <use xlink:href="#DejaVuSans-6b" x="161.962891"/>
      <use xlink:href="#DejaVuSans-63" x="219.873047"/>
      <use xlink:href="#DejaVuSans-6a" x="274.853516"/>
      <use xlink:href="#DejaVuSans-61" x="302.636719"/>
      <use xlink:href="#DejaVuSans-20" x="363.916016"/>
      <use xlink:href="#DejaVuSans-64" x="395.703125"/>
      <use xlink:href="#DejaVuSans-6f" x="459.179688"/>
      <use xlink:href="#DejaVuSans-70" x="520.361328"/>
      <use xlink:href="#DejaVuSans-61" x="583.837891"/>
      <use xlink:href="#DejaVuSans-73" x="645.117188"/>
      <use xlink:href="#DejaVuSans-6f" x="697.216797"/>
      <use xlink:href="#DejaVuSans-77" x="758.398438"/>
      <use xlink:href="#DejaVuSans-61" x="840.185547"/>
      <use xlink:href="#DejaVuSans-6e" x="901.464844"/>
      <use xlink:href="#DejaVuSans-61" x="964.84375"/>
      <use xlink:href="#DejaVuSans-3a" x="1026.123047"/>
      <use xlink:href="#DejaVuSans-20" x="1059.814453"/>
      <use xlink:href="#DejaVuSans-30" x="1091.601562"/>
      <use xlink:href="#DejaVuSans-2e" x="1155.224609"/>
      <use xlink:href="#DejaVuSans-34" x="1187.011719"/>
      <use xlink:href="#DejaVuSans-39" x="1250.634766"/>
      <use xlink:href="#DejaVuSans-39" x="1314.257812"/>
      <use xlink:href="#DejaVuSans-39" x="1377.880859"/>
      <use xlink:href="#DejaVuSans-39" x="1441.503906"/>
      <use xlink:href="#DejaVuSans-20" x="1505.126953"/>
      <use xlink:href="#DejaVuSans-2a" x="1536.914062"/>
      <use xlink:href="#DejaVuSans-20" x="1586.914062"/>
      <use xlink:href="#DejaVuSans-78" x="1618.701172"/>
      <use xlink:href="#DejaVuSans-5e" x="1677.880859"/>
      <use xlink:href="#DejaVuSans-32" x="1761.669922"/>
     </g>
    </g>
   </g>
  </g>
 </g>
 <defs>
  <clipPath id="p06e27a2a04">
   <rect x="47.72" y="42.648" width="402.28" height="260.992"/>
  </clipPath>
 </defs>
</svg>
